<?xml version="1.0" encoding="utf-8"?>
<!-- Generator: Adobe Illustrator 25.3.1, SVG Export Plug-In . SVG Version: 6.00 Build 0)  -->
<svg version="1.1" id="Layer_1" xmlns="http://www.w3.org/2000/svg" xmlns:xlink="http://www.w3.org/1999/xlink" x="0px" y="0px"
	 viewBox="0 0 500 500" style="enable-background:new 0 0 500 500;" xml:space="preserve">
<style type="text/css">
	.st0{fill:none;stroke:#0C0B0B;stroke-width:1.7922;stroke-miterlimit:10;}
	.st1{fill:none;stroke:#0C0B0B;stroke-width:1.5032;stroke-miterlimit:10;}
	.st2{fill:none;stroke:#0C0B0B;stroke-width:1.2719;stroke-miterlimit:10;}
</style>
<g>
	<g>
		<path class="st0" d="M228.01,230.79c8.27,8.27,41.13,0,41.13,0c7.66-3.23,8.47-16.13,8.47-16.13"/>
		<path class="st0" d="M327.21,230.04c-8.27,8.27-41.13,0-41.13,0c-7.66-3.23-8.47-16.13-8.47-16.13"/>
	</g>
	<g>
		<path class="st1" d="M236.01,243.9c6.93,6.93,34.5,0,34.5,0c6.43-2.71,7.1-13.53,7.1-13.53"/>
		<path class="st1" d="M319.21,243.28c-6.93,6.93-34.5,0-34.5,0c-6.43-2.71-7.1-13.53-7.1-13.53"/>
	</g>
	<g>
		<path class="st2" d="M242.41,256.28c5.87,5.87,29.19,0,29.19,0c5.44-2.29,6.01-11.45,6.01-11.45"/>
		<path class="st2" d="M312.81,255.75c-5.87,5.87-29.19,0-29.19,0c-5.44-2.29-6.01-11.45-6.01-11.45"/>
	</g>
</g>
</svg>
