<?xml version="1.0" encoding="utf-8"?>
<!-- Generator: Adobe Illustrator 25.3.1, SVG Export Plug-In . SVG Version: 6.00 Build 0)  -->
<svg version="1.1" id="Layer_1" xmlns="http://www.w3.org/2000/svg" xmlns:xlink="http://www.w3.org/1999/xlink" x="0px" y="0px"
	 viewBox="0 0 500 500" style="enable-background:new 0 0 500 500;" xml:space="preserve">
<style type="text/css">
	.st0{fill:none;stroke:#0C0B0B;stroke-width:1.9654;stroke-miterlimit:10;}
</style>
<path class="st0" d="M238.17,228.39c29.63-8.56,42.19,5.59,42.19,5.59c-2.83-22.11,0-36.68,0-36.68
	c-6.27,6.27-10.35-2.24-10.35-2.24c-3.76,3.76-7.52-5.85-7.52-5.85c-3.98,0-0.44-12.28-0.44-12.28c11.5-11.5,33.17-1.53,33.17-1.53
	l3.98,8.84c2.65,9.93,2.65,9.93,2.65,9.93s-7.96-16.36,0,0s9.73,60.14,9.73,60.14c-19.9,24.32-46.88,23.88-46.88,23.88
	c-34.05,0-36.13-9.29-36.13-9.29c0.64-2.52-0.75-8.36,2.95-12.06C239.69,248.69,237.78,230.24,238.17,228.39z"/>
</svg>
