<?xml version="1.0" encoding="utf-8"?>
<!-- Generator: Adobe Illustrator 25.3.1, SVG Export Plug-In . SVG Version: 6.00 Build 0)  -->
<svg version="1.1" id="Layer_1" xmlns="http://www.w3.org/2000/svg" xmlns:xlink="http://www.w3.org/1999/xlink" x="0px" y="0px"
	 viewBox="0 0 500 500" style="enable-background:new 0 0 500 500;" xml:space="preserve">
<style type="text/css">
	.st0{fill:none;stroke:#0C0B0B;stroke-width:1.8702;stroke-miterlimit:10;}
</style>
<path class="st0" d="M281.8,247.05c0,0,0.84,13.47,8.84,16.83c0,0,33.15,7.3,42.92,0c16.41-12.27,17.25-36.1,17.25-36.1
	c-4.63-20.77-29.88-24.98-29.88-24.98c-39.56-8.42-39.13,9.68-39.13,9.68V247.05z"/>
<path class="st0" d="M281.8,248.41c0,0-0.84,13.47-8.84,16.83c0,0-33.15,7.3-42.92,0c-16.41-12.27-17.25-36.1-17.25-36.1
	c4.63-20.77,29.88-24.98,29.88-24.98c39.56-8.42,39.13,9.68,39.13,9.68V248.41z"/>
</svg>
